# xmcd CD database file
#
# Track frame offsets:
#	150
#	20726
#	37522
#	43699
#	62991
#	78856
#	96013
#	108443
#	123542
#	137447
#	156661
#	180713
#	193838
#	198326
#	202716
#	207965
#	221002
#	235168
#	247067
#	259683
#	270702
#	277097
#	301169
#	326017
#
# Disc length: 4675 seconds
#
# Revision: 0
# Processed by: cddbd v1.5.2PL0 Copyright (c) Steve Scherf et al.
# Submitted via: CDex 1.70beta2
#
DISCID=60124118
DTITLE=Jan Johansson - Piano
DYEAR=2007
DGENRE=Jazz
TTITLE0=Visa från Utanmyra
TTITLE1=Stepp, min stepp
TTITLE2=Visa från Järna
TTITLE3=Bolles vaggvisa
TTITLE4=Klara stjärnor
TTITLE5=Blues i dimma
TTITLE6=Dubbeltwist
TTITLE7=Visa från Rättvik
TTITLE8=Prisma
TTITLE9=One for my baby
TTITLE10=Willow weep for me
TTITLE11=Liksom em herdinna
TTITLE12=Nej, se det snöar
TTITLE13=Har du sett min lilla katt
TTITLE14=Arbetsbyte
TTITLE15=Ack Värmeland du sköna
TTITLE16=Blues i oktaver
TTITLE17=Mellan branta stränder
TTITLE18=På ängen stod en björk
TTITLE19=Polska efter Höök Olle
TTITLE20=Byssan lull
TTITLE21=Svallvågor
TTITLE22=Flickorna i Småland
TTITLE23=Data
EXTD=YEAR: 2007
EXTT0=
EXTT1=
EXTT2=
EXTT3=
EXTT4=
EXTT5=
EXTT6=
EXTT7=
EXTT8=
EXTT9=
EXTT10=
EXTT11=
EXTT12=
EXTT13=
EXTT14=
EXTT15=
EXTT16=
EXTT17=
EXTT18=
EXTT19=
EXTT20=
EXTT21=
EXTT22=
EXTT23=
PLAYORDER=
